<svg width="1000" height="200" viewBox="0 0 1000 200" xmlns="http://www.w3.org/2000/svg">
  <!-- Black background -->
  <rect width="100%" height="100%" fill="transparent"/>
  
  <!-- Pink heartbeat line -->
  <path d="M0,100 
           L50,100 
           L70,95 
           L90,100 
           L110,100 
           L130,60 
           L140,140 
           L150,80 
           L170,100 
           L200,100
           
           L250,100 
           L270,95 
           L290,100 
           L310,100 
           L330,60 
           L340,140 
           L350,80 
           L370,100 
           L400,100
           
           L450,100 
           L470,95 
           L490,100 
           L510,100 
           L530,60 
           L540,140 
           L550,80 
           L570,100 
           L600,100
           
           L650,100 
           L670,95 
           L690,100 
           L710,100 
           L730,60 
           L740,140 
           L750,80 
           L770,100 
           L800,100
           
           L850,100 
           L870,95 
           L890,100 
           L910,100 
           L930,60 
           L940,140 
           L950,80 
           L970,100 
           L1000,100"
        stroke="#FF1493" 
        stroke-width="2.5" 
        fill="none"/>
</svg>