<svg width="40" height="40" viewBox="0 0 40 40" fill="none" xmlns="http://www.w3.org/2000/svg">
<rect width="40" height="40" rx="20" fill="white" fill-opacity="0.1"/>
<path d="M22.9167 20C22.9167 21.6108 21.6108 22.9166 20 22.9166C18.3892 22.9166 17.0833 21.6108 17.0833 20C17.0833 18.3891 18.3892 17.0833 20 17.0833C21.6108 17.0833 22.9167 18.3891 22.9167 20Z" stroke="#FE568D" stroke-width="1.25"/>
<path d="M27.5092 21.7472C27.9441 21.6299 28.1616 21.5712 28.2474 21.4591C28.3333 21.347 28.3333 21.1666 28.3333 20.8058V19.1944C28.3333 18.8337 28.3333 18.6532 28.2474 18.5412C28.1615 18.429 27.9441 18.3703 27.5092 18.2531C25.8838 17.8147 24.8666 16.1155 25.2861 14.5008C25.4014 14.0567 25.4591 13.8347 25.404 13.7045C25.3489 13.5743 25.1909 13.4845 24.8747 13.305L23.4375 12.489C23.1273 12.3129 22.9722 12.2248 22.8331 12.2436C22.6938 12.2623 22.5368 12.419 22.2227 12.7324C21.0067 13.9455 18.9947 13.9454 17.7786 12.7323C17.4645 12.4189 17.3075 12.2623 17.1683 12.2435C17.0291 12.2248 16.874 12.3128 16.5638 12.4889L15.1265 13.305C14.8104 13.4844 14.6524 13.5742 14.5973 13.7044C14.5422 13.8346 14.5999 14.0566 14.7152 14.5007C15.1345 16.1155 14.1164 17.8148 12.4908 18.2531C12.0559 18.3703 11.8385 18.429 11.7526 18.5411C11.6667 18.6532 11.6667 18.8337 11.6667 19.1944V20.8058C11.6667 21.1666 11.6667 21.347 11.7526 21.4591C11.8384 21.5712 12.0559 21.6299 12.4908 21.7472C14.1162 22.1855 15.1334 23.8847 14.7139 25.4994C14.5986 25.9435 14.5409 26.1655 14.596 26.2957C14.651 26.426 14.8091 26.5157 15.1252 26.6952L16.5624 27.5112C16.8727 27.6873 17.0278 27.7754 17.167 27.7567C17.3062 27.7379 17.4632 27.5812 17.7772 27.2678C18.9939 26.0537 21.0073 26.0537 22.2241 27.2677C22.5381 27.5812 22.6951 27.7378 22.8343 27.7566C22.9735 27.7753 23.1287 27.6872 23.4388 27.5112L24.8761 26.6951C25.1922 26.5157 25.3503 26.4259 25.4053 26.2957C25.4604 26.1654 25.4027 25.9434 25.2873 25.4993C24.8677 23.8847 25.8841 22.1856 27.5092 21.7472Z" stroke="#FE568D" stroke-width="1.25" stroke-linecap="round"/>
</svg>
