<svg width="32" height="32" viewBox="0 0 32 32" fill="none" xmlns="http://www.w3.org/2000/svg">
<path fill-rule="evenodd" clip-rule="evenodd" d="M5.33332 4.00002C5.33332 3.6464 5.19285 3.30726 4.9428 3.05721C4.69275 2.80716 4.35361 2.66669 3.99999 2.66669C3.64637 2.66669 3.30723 2.80716 3.05718 3.05721C2.80713 3.30726 2.66666 3.6464 2.66666 4.00002V26.9334C2.66666 27.5699 2.91951 28.1803 3.3696 28.6304C3.81969 29.0805 4.43014 29.3334 5.06666 29.3334H28C28.3536 29.3334 28.6927 29.1929 28.9428 28.9428C29.1928 28.6928 29.3333 28.3536 29.3333 28C29.3333 27.6464 29.1928 27.3073 28.9428 27.0572C28.6927 26.8072 28.3536 26.6667 28 26.6667H5.33332V4.00002ZM28.9427 10.276C29.1855 10.0245 29.3199 9.68775 29.3169 9.33815C29.3139 8.98856 29.1736 8.65414 28.9264 8.40693C28.6792 8.15972 28.3448 8.01949 27.9952 8.01645C27.6456 8.01342 27.3088 8.14781 27.0573 8.39069L18.6667 16.7814L14.276 12.3907C14.026 12.1407 13.6869 12.0003 13.3333 12.0003C12.9798 12.0003 12.6407 12.1407 12.3907 12.3907L7.05732 17.724C6.92998 17.847 6.8284 17.9941 6.75852 18.1568C6.68864 18.3195 6.65186 18.4944 6.65032 18.6715C6.64878 18.8485 6.68252 19.0241 6.74956 19.188C6.8166 19.3518 6.91561 19.5007 7.0408 19.6259C7.16599 19.7511 7.31486 19.8501 7.47872 19.9171C7.64258 19.9842 7.81815 20.0179 7.99519 20.0164C8.17223 20.0148 8.34719 19.978 8.50986 19.9082C8.67253 19.8383 8.81966 19.7367 8.94266 19.6094L13.3333 15.2187L17.724 19.6094C17.974 19.8593 18.3131 19.9997 18.6667 19.9997C19.0202 19.9997 19.3593 19.8593 19.6093 19.6094L28.9427 10.276Z" fill="#FE568D"/>
</svg>
