<svg width="79" height="16" viewBox="0 0 79 16" fill="none" xmlns="http://www.w3.org/2000/svg">
<path d="M25.248 4.3835C23.0563 4.3835 21.2699 6.05062 21.2699 8.34674C21.2699 10.6289 23.0563 12.31 25.248 12.31C27.4407 12.31 29.2271 10.6289 29.2271 8.34674C29.2262 6.05062 27.4398 4.3835 25.248 4.3835ZM25.248 10.75C24.0468 10.75 23.0115 9.75945 23.0115 8.34767C23.0115 6.92098 24.0478 5.94531 25.248 5.94531C26.4492 5.94531 27.4845 6.92098 27.4845 8.34767C27.4845 9.75852 26.4492 10.75 25.248 10.75ZM16.5686 4.3835C14.3769 4.3835 12.5905 6.05062 12.5905 8.34674C12.5905 10.6289 14.3769 12.31 16.5686 12.31C18.7613 12.31 20.5477 10.6289 20.5477 8.34674C20.5477 6.05062 18.7613 4.3835 16.5686 4.3835ZM16.5686 10.75C15.3674 10.75 14.3321 9.75945 14.3321 8.34767C14.3321 6.92098 15.3684 5.94531 16.5686 5.94531C17.7698 5.94531 18.8051 6.92098 18.8051 8.34767C18.806 9.75852 17.7698 10.75 16.5686 10.75ZM6.24538 5.60052V7.28161H10.2692C10.149 8.22746 9.834 8.91797 9.35315 9.39788C8.76794 9.9831 7.85192 10.6289 6.24538 10.6289C3.76847 10.6289 1.83205 8.63189 1.83205 6.15499C1.83205 3.67808 3.76847 1.68109 6.24538 1.68109C7.58167 1.68109 8.55734 2.20666 9.27767 2.88227L10.4639 1.696C9.45752 0.735244 8.12216 8.24712e-07 6.24538 8.24712e-07C2.85245 8.24712e-07 -1.7063e-07 2.76206 -1.7063e-07 6.15499C-1.7063e-07 9.54792 2.85245 12.31 6.24538 12.31C8.0765 12.31 9.45846 11.7089 10.5385 10.5832C11.6493 9.47243 11.995 7.91062 11.995 6.64981C11.995 6.26029 11.9652 5.89965 11.9046 5.59959H6.24538V5.60052ZM48.4664 6.90607C48.1365 6.0208 47.1301 4.3835 45.0735 4.3835C43.0318 4.3835 41.3348 5.99005 41.3348 8.34674C41.3348 10.5683 43.0169 12.31 45.2683 12.31C47.0845 12.31 48.1356 11.1992 48.5717 10.5534L47.2205 9.65228C46.7704 10.313 46.1545 10.7482 45.2683 10.7482C44.383 10.7482 43.7521 10.3428 43.3467 9.54698L48.6463 7.35523L48.4664 6.90607ZM43.0616 8.22746C43.0169 6.69547 44.2479 5.9155 45.1341 5.9155C45.8246 5.9155 46.4098 6.26122 46.6055 6.75604L43.0616 8.22746ZM38.7536 12.0705H40.4943V0.421205H38.7536V12.0705ZM35.9002 5.26971H35.8406C35.4501 4.80378 34.699 4.3835 33.7541 4.3835C31.772 4.3835 29.9558 6.12517 29.9558 8.36258C29.9558 10.5842 31.772 12.3109 33.7541 12.3109C34.7 12.3109 35.4501 11.8906 35.8406 11.4107H35.9002V11.981C35.9002 13.4972 35.0895 14.3079 33.7839 14.3079C32.7179 14.3079 32.0572 13.5428 31.7869 12.897L30.2708 13.5279C30.706 14.5781 31.8615 15.8697 33.7839 15.8697C35.8256 15.8697 37.5524 14.6685 37.5524 11.7406V4.62486H35.9011V5.26971H35.9002ZM33.9041 10.75C32.703 10.75 31.6975 9.74361 31.6975 8.36258C31.6975 6.96571 32.703 5.94531 33.9041 5.94531C35.0895 5.94531 36.0204 6.96571 36.0204 8.36258C36.0204 9.74361 35.0895 10.75 33.9041 10.75ZM56.624 0.421205H52.4576V12.0705H54.1955V7.65716H56.6231C58.5502 7.65716 60.4456 6.26215 60.4456 4.03965C60.4456 1.81714 58.5511 0.421205 56.624 0.421205ZM56.6687 6.0357H54.1955V2.04265H56.6687C57.9687 2.04265 58.7067 3.11896 58.7067 4.03965C58.7067 4.94169 57.9687 6.0357 56.6687 6.0357ZM67.415 4.363C66.1561 4.363 64.8524 4.91747 64.3128 6.1466L65.856 6.79052C66.1859 6.1466 66.8009 5.936 67.4448 5.936C68.3441 5.936 69.2583 6.47555 69.2732 7.43444V7.55465C68.9582 7.3748 68.2835 7.10549 67.4597 7.10549C65.7964 7.10549 64.1022 8.01965 64.1022 9.72777C64.1022 11.2868 65.4665 12.2904 66.9947 12.2904C68.1633 12.2904 68.8082 11.7658 69.2126 11.1507H69.2722V12.05H70.9515V7.58354C70.9524 5.51666 69.4074 4.363 67.415 4.363ZM67.2044 10.7472C66.636 10.7472 65.8411 10.4621 65.8411 9.75759C65.8411 8.85834 66.8307 8.51354 67.6853 8.51354C68.4485 8.51354 68.8091 8.67849 69.2732 8.90306C69.138 9.9831 68.209 10.7472 67.2044 10.7472ZM77.0664 4.6174L75.0731 9.66813H75.0135L72.9447 4.6174H71.0717L74.1739 11.6763L72.4052 15.6032H74.2186L79 4.6174H77.0664ZM61.4054 12.0705H63.1433V0.421205H61.4054V12.0705Z" fill="white"/>
</svg>
