<svg width="32" height="32" viewBox="0 0 32 32" fill="none" xmlns="http://www.w3.org/2000/svg">
<path fill-rule="evenodd" clip-rule="evenodd" d="M27.0785 6.35843C28.8943 8.25768 29.6134 10.8696 29.2358 13.3333H26.5227C26.9299 11.5481 26.4727 9.58362 25.151 8.20125C23.1948 6.15518 20.075 6.15518 18.1188 8.20125L16 10.4174L13.8811 8.20118C11.9249 6.15512 8.80511 6.15512 6.84892 8.20118C5.52724 9.58362 5.06999 11.5481 5.47717 13.3333H2.76417C2.38655 10.8696 3.10567 8.25762 4.92142 6.35837C7.71086 3.44087 12.1084 3.23025 15.1299 5.72668C15.3682 5.92384 15.5949 6.13476 15.8086 6.35837L16 6.55856L16.1913 6.35843C16.4083 6.1315 16.635 5.92093 16.87 5.72668C19.8916 3.23025 24.289 3.44081 27.0785 6.35843ZM22.5087 18.6667H26.1981L16 29.3333L5.80186 18.6667H9.49117L16 25.4745L22.5087 18.6667ZM12 7.68525L8.50799 14.6667H2.66667V17.3333H10.1574L12 13.648L16 21.6481L18.1573 17.3333H29.3333V14.6667H19.4907L18 11.6852L16 15.684L12 7.68525Z" fill="#FE568D"/>
</svg>
