<svg width="18" height="23" viewBox="0 0 18 23" fill="none" xmlns="http://www.w3.org/2000/svg">
<path d="M15.0341 11.7656C15.0561 10.0577 15.9733 8.4417 17.4283 7.54715C16.5104 6.23618 14.9729 5.40499 13.3733 5.35495C11.6672 5.17587 10.0132 6.37585 9.14381 6.37585C8.25758 6.37585 6.919 5.37273 5.47757 5.40238C3.59873 5.46309 1.84718 6.53129 0.933087 8.1739C-1.03186 11.5759 0.433814 16.5757 2.31606 19.3256C3.25779 20.6721 4.35841 22.1763 5.79854 22.1229C7.20779 22.0645 7.73412 21.2243 9.4352 21.2243C11.1205 21.2243 11.6143 22.1229 13.0837 22.089C14.5959 22.0645 15.5486 20.7365 16.4573 19.3772C17.1339 18.4177 17.6546 17.3573 18 16.2352C16.2229 15.4836 15.0361 13.6952 15.0341 11.7656Z" fill="white"/>
<path d="M12.2587 3.54647C13.0832 2.55667 13.4894 1.28446 13.391 0C12.1314 0.132304 10.9678 0.734344 10.1321 1.68616C9.31499 2.61614 8.88974 3.86597 8.97014 5.10133C10.2303 5.11431 11.4691 4.52859 12.2587 3.54647Z" fill="white"/>
</svg>
