<svg width="38" height="38" viewBox="0 0 38 38" fill="none" xmlns="http://www.w3.org/2000/svg">
<rect width="38" height="38" rx="19" fill="white" fill-opacity="0.1"/>
<path d="M11.0833 18.9999C11.0833 15.268 11.0833 13.402 12.2427 12.2426C13.4021 11.0833 15.268 11.0833 19 11.0833C22.7319 11.0833 24.5979 11.0833 25.7573 12.2426C26.9166 13.402 26.9166 15.268 26.9166 18.9999C26.9166 22.7318 26.9166 24.5978 25.7573 25.7573C24.5979 26.9166 22.7319 26.9166 19 26.9166C15.268 26.9166 13.4021 26.9166 12.2427 25.7573C11.0833 24.5978 11.0833 22.7318 11.0833 18.9999Z" stroke="white" stroke-width="1.25" stroke-linejoin="round"/>
<path d="M23.1054 15.6887H20.6513C19.7815 15.6887 19.0745 16.3905 19.0681 17.2603L18.997 26.8557M17.4017 20.6682H21.4039" stroke="white" stroke-width="1.25" stroke-linecap="round" stroke-linejoin="round"/>
</svg>
