<svg width="37" height="7" viewBox="0 0 37 7" fill="none" xmlns="http://www.w3.org/2000/svg">
<path d="M5.83673 3.28857C5.83673 4.08299 5.60163 4.7153 5.13047 5.1874C4.5958 5.74862 3.89808 6.02922 3.04109 6.02922C2.22013 6.02922 1.52146 5.74482 0.94792 5.17603C0.373434 4.60628 0.0861914 3.90097 0.0861914 3.05915C0.0861914 2.21639 0.373434 1.51108 0.94792 0.94228C1.52146 0.372535 2.22013 0.088137 3.04109 0.088137C3.44873 0.088137 3.83836 0.167768 4.20807 0.326083C4.57874 0.485347 4.87546 0.69675 5.09729 0.96124L4.5977 1.46178C4.22135 1.01148 3.70279 0.786809 3.04014 0.786809C2.44101 0.786809 1.9234 0.997264 1.48638 1.41817C1.04935 1.83908 0.831315 2.38608 0.831315 3.05821C0.831315 3.73033 1.04935 4.27733 1.48638 4.69824C1.9234 5.11915 2.44101 5.3296 3.04014 5.3296C3.6753 5.3296 4.20523 5.1182 4.62898 4.69445C4.9039 4.41858 5.06316 4.03464 5.10583 3.54263H3.04014V2.85913H5.79597C5.82441 3.00796 5.83673 3.15111 5.83673 3.28857Z" fill="white"/>
<path d="M10.2071 0.912946H7.61716V2.71603H9.95301V3.39954H7.61716V5.20262H10.2071V5.90225H6.88625V0.214274H10.2071V0.912946Z" fill="white"/>
<path d="M13.2889 5.90225H12.558V0.912946H10.9692V0.214274H14.8777V0.912946H13.2889V5.90225Z" fill="white"/>
<path d="M17.7056 5.90225V0.214274H18.4365V5.90225H17.7056Z" fill="white"/>
<path d="M21.6778 5.90225H20.9469V0.912946H19.3581V0.214274H23.2667V0.912946H21.6778V5.90225Z" fill="white"/>
<path d="M30.6656 5.16754C30.1062 5.74203 29.4114 6.02927 28.58 6.02927C27.7486 6.02927 27.0537 5.74203 26.4953 5.16754C25.936 4.59306 25.6573 3.88964 25.6573 3.05825C25.6573 2.22686 25.936 1.52345 26.4953 0.94896C27.0537 0.374475 27.7486 0.0862847 28.58 0.0862847C29.4066 0.0862847 30.1006 0.375423 30.6618 0.952752C31.223 1.53008 31.5036 2.2316 31.5036 3.05825C31.5036 3.88964 31.2239 4.59306 30.6656 5.16754ZM27.0347 4.6907C27.4556 5.1173 27.9704 5.32965 28.58 5.32965C29.1895 5.32965 29.7052 5.11635 30.1252 4.6907C30.5461 4.2641 30.7575 3.71995 30.7575 3.05825C30.7575 2.39655 30.5461 1.8524 30.1252 1.4258C29.7052 0.999204 29.1895 0.786854 28.58 0.786854C27.9704 0.786854 27.4556 1.00015 27.0347 1.4258C26.6148 1.8524 26.4034 2.39655 26.4034 3.05825C26.4034 3.71995 26.6148 4.2641 27.0347 4.6907Z" fill="white"/>
<path d="M32.5293 5.90225V0.214274H33.4186L36.1829 4.63857H36.2142L36.1829 3.54268V0.214274H36.9138V5.90225H36.1507L33.2583 1.26276H33.2271L33.2583 2.35864V5.90225H32.5293Z" fill="white"/>
<path d="M5.83673 3.28857C5.83673 4.08299 5.60163 4.7153 5.13047 5.1874C4.5958 5.74862 3.89808 6.02922 3.04109 6.02922C2.22013 6.02922 1.52146 5.74482 0.94792 5.17603C0.373434 4.60628 0.0861914 3.90097 0.0861914 3.05915C0.0861914 2.21639 0.373434 1.51108 0.94792 0.94228C1.52146 0.372535 2.22013 0.088137 3.04109 0.088137C3.44873 0.088137 3.83836 0.167768 4.20807 0.326083C4.57874 0.485347 4.87546 0.69675 5.09729 0.96124L4.5977 1.46178C4.22135 1.01148 3.70279 0.786809 3.04014 0.786809C2.44101 0.786809 1.9234 0.997264 1.48638 1.41817C1.04935 1.83908 0.831315 2.38608 0.831315 3.05821C0.831315 3.73033 1.04935 4.27733 1.48638 4.69824C1.9234 5.11915 2.44101 5.3296 3.04014 5.3296C3.6753 5.3296 4.20523 5.1182 4.62898 4.69445C4.9039 4.41858 5.06316 4.03464 5.10583 3.54263H3.04014V2.85913H5.79597C5.82441 3.00796 5.83673 3.15111 5.83673 3.28857Z" stroke="white" stroke-width="0.169231" stroke-miterlimit="10"/>
<path d="M10.2071 0.912946H7.61716V2.71603H9.95301V3.39954H7.61716V5.20262H10.2071V5.90225H6.88625V0.214274H10.2071V0.912946Z" stroke="white" stroke-width="0.169231" stroke-miterlimit="10"/>
<path d="M13.2889 5.90225H12.558V0.912946H10.9692V0.214274H14.8777V0.912946H13.2889V5.90225Z" stroke="white" stroke-width="0.169231" stroke-miterlimit="10"/>
<path d="M17.7056 5.90225V0.214274H18.4365V5.90225H17.7056Z" stroke="white" stroke-width="0.169231" stroke-miterlimit="10"/>
<path d="M21.6778 5.90225H20.9469V0.912946H19.3581V0.214274H23.2667V0.912946H21.6778V5.90225Z" stroke="white" stroke-width="0.169231" stroke-miterlimit="10"/>
<path d="M30.6656 5.16754C30.1062 5.74203 29.4114 6.02927 28.58 6.02927C27.7486 6.02927 27.0537 5.74203 26.4953 5.16754C25.936 4.59306 25.6573 3.88964 25.6573 3.05825C25.6573 2.22686 25.936 1.52345 26.4953 0.94896C27.0537 0.374475 27.7486 0.0862847 28.58 0.0862847C29.4066 0.0862847 30.1006 0.375423 30.6618 0.952752C31.223 1.53008 31.5036 2.2316 31.5036 3.05825C31.5036 3.88964 31.2239 4.59306 30.6656 5.16754ZM27.0347 4.6907C27.4556 5.1173 27.9704 5.32965 28.58 5.32965C29.1895 5.32965 29.7052 5.11635 30.1252 4.6907C30.5461 4.2641 30.7575 3.71995 30.7575 3.05825C30.7575 2.39655 30.5461 1.8524 30.1252 1.4258C29.7052 0.999204 29.1895 0.786854 28.58 0.786854C27.9704 0.786854 27.4556 1.00015 27.0347 1.4258C26.6148 1.8524 26.4034 2.39655 26.4034 3.05825C26.4034 3.71995 26.6148 4.2641 27.0347 4.6907Z" stroke="white" stroke-width="0.169231" stroke-miterlimit="10"/>
<path d="M32.5293 5.90225V0.214274H33.4186L36.1829 4.63857H36.2142L36.1829 3.54268V0.214274H36.9138V5.90225H36.1507L33.2583 1.26276H33.2271L33.2583 2.35864V5.90225H32.5293Z" stroke="white" stroke-width="0.169231" stroke-miterlimit="10"/>
</svg>
