<svg width="71" height="7" viewBox="0 0 71 7" fill="none" xmlns="http://www.w3.org/2000/svg">
<path d="M0 0.302555V6.45168H2.22016C4.05254 6.45168 5.11361 5.32242 5.11361 3.35794C5.11361 1.42329 4.04402 0.302555 2.22016 0.302555H0ZM0.954541 1.17187H2.11363C3.38777 1.17187 4.14203 1.98153 4.14203 3.37072C4.14203 4.78123 3.40055 5.58236 2.11363 5.58236H0.954541V1.17187Z" fill="white"/>
<path d="M8.36332 6.54116C9.71842 6.54116 10.5494 5.6335 10.5494 4.12924C10.5494 2.63351 9.71416 1.72158 8.36332 1.72158C7.00821 1.72158 6.17298 2.63351 6.17298 4.12924C6.17298 5.6335 7.00395 6.54116 8.36332 6.54116ZM8.36332 5.72725C7.56644 5.72725 7.119 5.14344 7.119 4.12924C7.119 3.12357 7.56644 2.5355 8.36332 2.5355C9.15593 2.5355 9.60763 3.12357 9.60763 4.12924C9.60763 5.13918 9.15593 5.72725 8.36332 5.72725Z" fill="white"/>
<path d="M17.6258 1.81107H16.7096L15.8829 5.35225H15.8104L14.8559 1.81107H13.9781L13.0235 5.35225H12.9553L12.1244 1.81107H11.1954L12.4738 6.45168H13.4156L14.3701 3.03408H14.4426L15.4014 6.45168H16.3516L17.6258 1.81107Z" fill="white"/>
<path d="M18.6809 6.45168H19.5971V3.7372C19.5971 3.01277 20.0275 2.56107 20.705 2.56107C21.3826 2.56107 21.7064 2.93181 21.7064 3.67754V6.45168H22.6226V3.44743C22.6226 2.34374 22.0516 1.72158 21.0161 1.72158C20.3172 1.72158 19.857 2.03266 19.6312 2.54828H19.563V1.81107H18.6809V6.45168Z" fill="white"/>
<path d="M24.0655 6.45168H24.9817V0H24.0655V6.45168Z" fill="white"/>
<path d="M28.4274 6.54116C29.7825 6.54116 30.6135 5.6335 30.6135 4.12924C30.6135 2.63351 29.7783 1.72158 28.4274 1.72158C27.0723 1.72158 26.2371 2.63351 26.2371 4.12924C26.2371 5.6335 27.0681 6.54116 28.4274 6.54116ZM28.4274 5.72725C27.6306 5.72725 27.1831 5.14344 27.1831 4.12924C27.1831 3.12357 27.6306 2.5355 28.4274 2.5355C29.22 2.5355 29.6717 3.12357 29.6717 4.12924C29.6717 5.13918 29.22 5.72725 28.4274 5.72725Z" fill="white"/>
<path d="M33.3433 5.75708C32.8447 5.75708 32.4825 5.51418 32.4825 5.09657C32.4825 4.68748 32.7723 4.47015 33.4115 4.42754L34.545 4.35509V4.74288C34.545 5.31816 34.0337 5.75708 33.3433 5.75708ZM33.1089 6.52838C33.7183 6.52838 34.2254 6.26418 34.5024 5.79969H34.5748V6.45168H35.4569V3.28124C35.4569 2.30113 34.8007 1.72158 33.6374 1.72158C32.5848 1.72158 31.8348 2.23294 31.7411 3.02982H32.6274C32.7297 2.70169 33.0834 2.51419 33.5947 2.51419C34.2212 2.51419 34.545 2.79118 34.545 3.28124V3.6818L33.2879 3.75424C32.1842 3.82243 31.5621 4.30396 31.5621 5.13918C31.5621 5.98719 32.2141 6.52838 33.1089 6.52838Z" fill="white"/>
<path d="M38.566 6.52838C39.2052 6.52838 39.7464 6.22582 40.0234 5.71872H40.0958V6.45168H40.9737V0H40.0575V2.54828H39.9893C39.7379 2.03692 39.201 1.73437 38.566 1.73437C37.3942 1.73437 36.6399 2.66334 36.6399 4.12924C36.6399 5.59941 37.3856 6.52838 38.566 6.52838ZM38.826 2.55681C39.593 2.55681 40.0745 3.16618 40.0745 4.1335C40.0745 5.10509 39.5973 5.70594 38.826 5.70594C38.0504 5.70594 37.5859 5.11361 37.5859 4.12924C37.5859 3.1534 38.0547 2.55681 38.826 2.55681Z" fill="white"/>
<path d="M46.9149 6.54116C48.27 6.54116 49.1009 5.6335 49.1009 4.12924C49.1009 2.63351 48.2657 1.72158 46.9149 1.72158C45.5597 1.72158 44.7245 2.63351 44.7245 4.12924C44.7245 5.6335 45.5555 6.54116 46.9149 6.54116ZM46.9149 5.72725C46.118 5.72725 45.6705 5.14344 45.6705 4.12924C45.6705 3.12357 46.118 2.5355 46.9149 2.5355C47.7075 2.5355 48.1592 3.12357 48.1592 4.12924C48.1592 5.13918 47.7075 5.72725 46.9149 5.72725Z" fill="white"/>
<path d="M50.3137 6.45168H51.2299V3.7372C51.2299 3.01277 51.6603 2.56107 52.3378 2.56107C53.0154 2.56107 53.3393 2.93181 53.3393 3.67754V6.45168H54.2554V3.44743C54.2554 2.34374 53.6844 1.72158 52.6489 1.72158C51.9501 1.72158 51.4898 2.03266 51.264 2.54828H51.1958V1.81107H50.3137V6.45168Z" fill="white"/>
<path d="M58.475 0.656247V1.83238H57.7378V2.60368H58.475V5.22441C58.475 6.11929 58.8799 6.47724 59.8983 6.47724C60.0773 6.47724 60.2478 6.45594 60.3969 6.43037V5.66759C60.2691 5.68037 60.1881 5.6889 60.0475 5.6889C59.5915 5.6889 59.3912 5.47583 59.3912 4.99003V2.60368H60.3969V1.83238H59.3912V0.656247H58.475Z" fill="white"/>
<path d="M61.6267 6.45168H62.5429V3.74146C62.5429 3.03834 62.9605 2.56533 63.7105 2.56533C64.3582 2.56533 64.7034 2.94033 64.7034 3.6818V6.45168H65.6196V3.45595C65.6196 2.35226 65.0102 1.72584 64.0216 1.72584C63.3227 1.72584 62.8327 2.03692 62.6068 2.55681H62.5344V0H61.6267V6.45168Z" fill="white"/>
<path d="M68.9247 2.50141C69.6023 2.50141 70.0454 2.97442 70.0667 3.70311H67.723C67.7741 2.97868 68.2471 2.50141 68.9247 2.50141ZM70.0625 5.19884C69.892 5.56106 69.5128 5.76134 68.9588 5.76134C68.2258 5.76134 67.7528 5.24572 67.723 4.4318V4.38066H71V4.06106C71 2.60368 70.2201 1.72158 68.929 1.72158C67.6207 1.72158 66.7898 2.66334 66.7898 4.14629C66.7898 5.62924 67.6037 6.54116 68.9332 6.54116C69.9943 6.54116 70.7358 6.0298 70.9446 5.19884H70.0625Z" fill="white"/>
</svg>
