<svg width="32" height="32" viewBox="0 0 32 32" fill="none" xmlns="http://www.w3.org/2000/svg">
<path d="M3.33333 12.6666H28.6667M3.33333 12.6666V27.3333C3.33333 27.6869 3.47381 28.0261 3.72386 28.2761C3.97391 28.5262 4.31304 28.6666 4.66667 28.6666H27.3333C27.687 28.6666 28.0261 28.5262 28.2761 28.2761C28.5262 28.0261 28.6667 27.6869 28.6667 27.3333V12.6666M3.33333 12.6666V6.66665C3.33333 6.31302 3.47381 5.97389 3.72386 5.72384C3.97391 5.47379 4.31304 5.33331 4.66667 5.33331H27.3333C27.687 5.33331 28.0261 5.47379 28.2761 5.72384C28.5262 5.97389 28.6667 6.31302 28.6667 6.66665V12.6666" stroke="#FE568D" stroke-width="2" stroke-linejoin="round"/>
<path d="M10.6667 20.6666L14.6667 24.6666L22.6667 16.6666" stroke="#FE568D" stroke-width="2" stroke-linecap="round" stroke-linejoin="round"/>
<path d="M10.6667 3.33331V8.66665M21.3333 3.33331V8.66665" stroke="#FE568D" stroke-width="2" stroke-linecap="round"/>
</svg>
