<svg width="13" height="17" viewBox="0 0 13 17" fill="none" xmlns="http://www.w3.org/2000/svg">
<path d="M3.38085 9.08724H2.98073C1.68722 9.08724 1.04046 9.08724 0.764781 8.66076C0.489102 8.23436 0.751774 7.64024 1.27712 6.45201L2.8565 2.87974C3.33414 1.79938 3.57297 1.2592 4.03629 0.956525C4.4996 0.653846 5.08761 0.653846 6.26375 0.653846H8.08528C9.51397 0.653846 10.2283 0.653846 10.4977 1.12056C10.7672 1.58728 10.4128 2.21077 9.70394 3.45774L8.76946 5.10164C8.41708 5.72155 8.24089 6.0315 8.24333 6.28522C8.24656 6.61496 8.42188 6.91874 8.70512 7.08508C8.92307 7.21314 9.27815 7.21314 9.9884 7.21314C10.8863 7.21314 11.3352 7.21314 11.5691 7.36858C11.8728 7.57049 12.0318 7.93176 11.9761 8.29356C11.9332 8.57201 11.6312 8.90591 11.0272 9.57379L6.20176 14.9097C5.25395 15.9578 4.78004 16.4818 4.46181 16.316C4.14357 16.1501 4.2964 15.4588 4.60202 14.0762L5.20077 11.3679C5.43345 10.3151 5.54984 9.78869 5.26999 9.43796C4.99014 9.08724 4.4537 9.08724 3.38085 9.08724Z" stroke="#FE568D" stroke-width="1.25" stroke-linejoin="round"/>
</svg>
