<svg width="77" height="16" viewBox="0 0 77 16" fill="none" xmlns="http://www.w3.org/2000/svg">
<path d="M47.9096 1.45228V3.78398H46.4481V5.31311H47.9096V10.5088C47.9096 12.2829 48.7122 12.9925 50.7313 12.9925C51.0861 12.9925 51.4241 12.9503 51.7197 12.8996V11.3874C51.4663 11.4127 51.3058 11.4296 51.027 11.4296C50.123 11.4296 49.726 11.0072 49.726 10.0441V5.31311H51.7197V3.78398H49.726V1.45228H47.9096Z" fill="white"/>
<path d="M56.8633 13.1193C59.5499 13.1193 61.1973 11.3198 61.1973 8.33757C61.1973 5.37225 59.5414 3.56433 56.8633 3.56433C54.1768 3.56433 52.521 5.37225 52.521 8.33757C52.521 11.3198 54.1684 13.1193 56.8633 13.1193ZM56.8633 11.5056C55.2835 11.5056 54.3965 10.3482 54.3965 8.33757C54.3965 6.34379 55.2835 5.17794 56.8633 5.17794C58.4347 5.17794 59.3302 6.34379 59.3302 8.33757C59.3302 10.3398 58.4347 11.5056 56.8633 11.5056Z" fill="white"/>
<path d="M62.6068 12.9418H64.4231V7.50964C64.4231 6.21707 65.3947 5.3469 66.7717 5.3469C67.0928 5.3469 67.6335 5.40604 67.7855 5.45673V3.66571C67.5912 3.61502 67.2448 3.58967 66.9745 3.58967C65.7748 3.58967 64.7526 4.24863 64.4907 5.15259H64.3556V3.74174H62.6068V12.9418Z" fill="white"/>
<path d="M72.2955 5.11035C73.6388 5.11035 74.5174 6.0481 74.5596 7.49275H69.9131C70.0145 6.05655 70.9523 5.11035 72.2955 5.11035ZM74.5512 10.4581C74.2133 11.1762 73.4614 11.5732 72.3631 11.5732C70.91 11.5732 69.9723 10.551 69.9131 8.93739V8.83601H76.4098V8.2024C76.4098 5.31311 74.8638 3.56433 72.304 3.56433C69.7104 3.56433 68.063 5.43138 68.063 8.37136C68.063 11.3113 69.6766 13.1193 72.3124 13.1193C74.416 13.1193 75.886 12.1055 76.3 10.4581H74.5512Z" fill="white"/>
<path d="M35.9981 9.54439C36.1382 11.8035 38.0209 13.2483 40.8229 13.2483C43.8175 13.2483 45.6914 11.7335 45.6914 9.31672C45.6914 7.4166 44.6231 6.36584 42.0313 5.76166L40.639 5.42016C38.9928 5.03488 38.3273 4.51826 38.3273 3.61636C38.3273 2.47804 39.3606 1.73375 40.9104 1.73375C42.3815 1.73375 43.3972 2.46053 43.5811 3.62512H45.49C45.3762 1.49733 43.5023 0 40.9367 0C38.1785 0 36.3396 1.49733 36.3396 3.7477C36.3396 5.60404 37.3816 6.70734 39.667 7.24148L41.2957 7.63551C42.9682 8.02955 43.7037 8.60746 43.7037 9.57066C43.7037 10.6915 42.5479 11.5058 40.9717 11.5058C39.2818 11.5058 38.1084 10.744 37.942 9.54439H35.9981Z" fill="white"/>
<path d="M17.1825 3.58967C15.9321 3.58967 14.8508 4.21484 14.2932 5.26242H14.158V3.74174H12.4092V16.0001H14.2256V11.5479H14.3692C14.8508 12.5194 15.8899 13.0939 17.1994 13.0939C19.5226 13.0939 21.0011 11.2606 21.0011 8.33757C21.0011 5.41449 19.5226 3.58967 17.1825 3.58967ZM16.6671 11.4634C15.1464 11.4634 14.1918 10.2638 14.1918 8.34602C14.1918 6.41982 15.1464 5.22018 16.6756 5.22018C18.2131 5.22018 19.134 6.39448 19.134 8.33757C19.134 10.2891 18.2131 11.4634 16.6671 11.4634Z" fill="white"/>
<path d="M27.3568 3.58967C26.1065 3.58967 25.0251 4.21484 24.4675 5.26242H24.3324V3.74174H22.5836V16.0001H24.3999V11.5479H24.5436C25.0251 12.5194 26.0642 13.0939 27.3737 13.0939C29.697 13.0939 31.1754 11.2606 31.1754 8.33757C31.1754 5.41449 29.697 3.58967 27.3568 3.58967ZM26.8415 11.4634C25.3208 11.4634 24.3661 10.2638 24.3661 8.34602C24.3661 6.41982 25.3208 5.22018 26.8499 5.22018C28.3875 5.22018 29.3083 6.39448 29.3083 8.33757C29.3083 10.2891 28.3875 11.4634 26.8415 11.4634Z" fill="white"/>
<path d="M9.15036 12.9418H11.2344L6.67232 0.306471H4.56204L0 12.9418H2.01395L3.17854 9.58817H7.99452L9.15036 12.9418ZM5.51648 2.60063H5.66534L7.49541 7.94198H3.67765L5.51648 2.60063Z" fill="white"/>
</svg>
