<svg width="38" height="38" viewBox="0 0 38 38" fill="none" xmlns="http://www.w3.org/2000/svg">
<rect width="38" height="38" rx="19" fill="white" fill-opacity="0.1"/>
<path d="M11.0833 18.9999C11.0833 15.268 11.0833 13.402 12.2427 12.2426C13.4021 11.0833 15.268 11.0833 19 11.0833C22.7319 11.0833 24.5979 11.0833 25.7573 12.2426C26.9166 13.402 26.9166 15.268 26.9166 18.9999C26.9166 22.7318 26.9166 24.5978 25.7573 25.7573C24.5979 26.9166 22.7319 26.9166 19 26.9166C15.268 26.9166 13.4021 26.9166 12.2427 25.7573C11.0833 24.5978 11.0833 22.7318 11.0833 18.9999Z" stroke="white" stroke-width="1.25" stroke-linejoin="round"/>
<path d="M22.75 19C22.75 21.0711 21.0711 22.75 19 22.75C16.9289 22.75 15.25 21.0711 15.25 19C15.25 16.9289 16.9289 15.25 19 15.25C21.0711 15.25 22.75 16.9289 22.75 19Z" stroke="white" stroke-width="1.25"/>
<path d="M23.5898 14.4167H23.5823" stroke="white" stroke-width="1.66667" stroke-linecap="round" stroke-linejoin="round"/>
</svg>
